<?xml version="1.0" standalone="no"?>
<!DOCTYPE svg PUBLIC "-//W3C//DTD SVG 20010904//EN"
 "http://www.w3.org/TR/2001/REC-SVG-20010904/DTD/svg10.dtd">
<svg version="1.0" xmlns="http://www.w3.org/2000/svg"
 width="2368.000000pt" height="2368.000000pt" viewBox="0 0 2368.000000 2368.000000"
 preserveAspectRatio="xMidYMid meet">
<metadata>
Created by potrace 1.11, written by Peter Selinger 2001-2013
</metadata>
<g transform="translate(0.000000,2368.000000) scale(0.100000,-0.100000)"
fill="#000000" stroke="none">
<path d="M0 11840 l0 -11840 11840 0 11840 0 0 11840 0 11840 -11840 0 -11840
0 0 -11840z m12003 6169 c54 -93 95 -175 91 -181 -4 -6 -3 -8 3 -5 9 6 123
-180 123 -201 0 -6 4 -12 8 -14 5 -1 90 -145 190 -318 l181 -315 -695 -3
c-603 -2 -695 -4 -691 -17 5 -12 616 -1074 669 -1163 l20 -32 -702 2 -702 3
-344 595 c-189 327 -344 598 -344 603 0 4 312 7 694 7 l695 0 77 136 c43 75
85 143 93 152 9 8 14 16 11 17 -3 1 51 99 119 218 69 119 129 213 134 210 6
-3 7 -1 3 5 -6 10 156 301 175 313 6 3 10 10 9 15 -1 11 73 144 80 144 3 0 49
-77 103 -171z m947 -4067 l348 -602 -701 2 -702 3 -332 575 c-182 316 -339
587 -348 603 l-16 27 702 -2 701 -3 348 -603z m-701 -1209 c189 -329 344 -603
344 -609 0 -13 -685 -1204 -693 -1204 -8 0 -693 1191 -693 1204 0 13 685 1206
693 1206 3 0 160 -269 349 -597z m6 -2436 l345 -597 -346 -600 c-191 -330
-350 -600 -354 -600 -4 0 -163 270 -354 600 l-346 600 347 600 c190 330 350
599 355 598 4 -2 163 -272 353 -601z"/>
</g>
</svg>
